<svg xmlns="http://www.w3.org/2000/svg" width="488" height="78" viewBox="0 0 488 78"><path fill="#21355A" d="M121.703 66.067c-1.38 0-2.38-.32-3.26-1.22l.93-.92c.67.67 1.41.88 2.36.88 1.2 0 1.9-.52 1.9-1.41 0-.4-.12-.74-.36-.96-.24-.21-.47-.3-1.01-.38l-1.09-.15c-.75-.1-1.35-.36-1.75-.74-.45-.43-.67-1.01-.67-1.76 0-1.6 1.16-2.71 3.08-2.71 1.22 0 2.07.31 2.86 1.05l-.89.88c-.57-.54-1.23-.71-2.01-.71-1.09 0-1.68.62-1.68 1.44 0 .33.1.63.35.85.23.21.61.36 1.04.43l1.04.15c.86.13 1.33.34 1.72.69.5.44.75 1.1.75 1.89 0 1.69-1.38 2.7-3.31 2.7m12.28-.07l-2.59-4.54-1.55 1.86v2.68h-1.4v-9.22h1.4v4.63l3.77-4.63h1.71l-3 3.61 3.3 5.6h-1.64m4.53.01h1.4v-9.22h-1.4v9.22zm12.99.07c-.96 0-1.79-.35-2.42-.98-.91-.91-.89-1.93-.89-3.7 0-1.77-.01-2.79.89-3.7.63-.63 1.46-.98 2.42-.98 1.7 0 2.96 1 3.29 2.83h-1.42c-.22-.93-.84-1.58-1.86-1.58-.54 0-1.04.21-1.36.56-.45.49-.56 1.02-.56 2.87s.1 2.38.56 2.88c.32.35.82.56 1.36.56 1.02 0 1.66-.65 1.88-1.58h1.41c-.32 1.83-1.63 2.82-3.3 2.82m6.7-.07v-9.22h1.4v7.96h4.44v1.26h-5.84m14-8.31c-.63-.63-1.45-.98-2.43-.98-.98 0-1.79.35-2.42.98-.91.91-.89 1.93-.89 3.7 0 1.78-.01 2.8.89 3.7.63.63 1.44.98 2.42.98s1.8-.35 2.43-.98c.91-.91.88-1.93.88-3.7 0-1.77.03-2.8-.88-3.7zm-1.06 6.56c-.32.35-.83.57-1.37.57s-1.05-.22-1.37-.57c-.45-.49-.54-1.01-.54-2.86 0-1.85.09-2.37.54-2.86.32-.35.83-.57 1.37-.57s1.05.22 1.37.57c.45.49.54 1.01.54 2.86 0 1.85-.09 2.37-.54 2.86zm8.42-6.21v7.96h-1.4v-7.96h-2.54v-1.26h6.47v1.25h-2.53m10.82 7.97v-4.03h-3.74v4.03h-1.4v-9.22h1.4v3.93h3.74v-3.93h1.4v9.21h-1.4m5.36.01h1.4v-9.22h-1.4v9.22zm11.01 0l-4.26-6.49v6.49h-1.4v-9.22h1.28l4.26 6.47v-6.47h1.4v9.21h-1.28m10.75-.96c-.7.74-1.57 1.05-2.54 1.05-.96 0-1.79-.35-2.42-.98-.91-.91-.89-1.93-.89-3.7 0-1.77-.01-2.79.89-3.7.63-.63 1.44-.98 2.42-.98 1.95 0 3.09 1.28 3.35 2.86h-1.41c-.23-1.01-.91-1.6-1.94-1.6-.54 0-1.04.22-1.36.57-.45.49-.56 1.01-.56 2.86 0 1.85.1 2.38.56 2.88.32.35.82.56 1.36.56.61 0 1.14-.23 1.5-.65.34-.39.47-.86.47-1.45v-.55h-1.97v-1.19h3.37v1.41c0 1.2-.22 1.96-.83 2.61m11.54 1.04c-1.39 0-2.38-.32-3.26-1.22l.93-.92c.67.67 1.41.88 2.36.88 1.2 0 1.9-.52 1.9-1.41 0-.4-.12-.74-.36-.96-.23-.22-.47-.31-1.01-.39l-1.09-.16c-.75-.1-1.35-.36-1.75-.74-.45-.43-.67-1.01-.67-1.76 0-1.6 1.16-2.71 3.08-2.71 1.22 0 2.07.31 2.86 1.05l-.89.88c-.57-.54-1.23-.71-2.01-.71-1.09 0-1.68.62-1.68 1.44 0 .33.1.63.35.85.23.21.61.36 1.04.43l1.05.15c.85.13 1.33.34 1.72.69.5.44.75 1.1.75 1.89 0 1.71-1.39 2.72-3.32 2.72m6.75-.07h1.4v-9.22h-1.4v9.22zm11.01 0l-4.26-6.49v6.49h-1.4v-9.22h1.28l4.26 6.47v-6.47h1.4v9.21h-1.28m8.21.08c-.96 0-1.79-.35-2.42-.98-.91-.91-.89-1.93-.89-3.7 0-1.77-.01-2.79.89-3.7.63-.63 1.46-.98 2.42-.98 1.7 0 2.96 1 3.29 2.83h-1.42c-.22-.93-.84-1.58-1.86-1.58-.54 0-1.04.21-1.36.56-.45.49-.56 1.02-.56 2.87s.1 2.38.56 2.88c.32.35.82.56 1.36.56 1.02 0 1.66-.65 1.88-1.58h1.4c-.31 1.83-1.62 2.82-3.29 2.82m6.71-.07v-9.22h5.89v1.25h-4.49v2.69h3.83v1.24h-3.83v2.77h4.49v1.26h-5.89m16.08.01v-7.78l-1.8 1.58v-1.46l1.8-1.55h1.32v9.21h-1.32m8.62-9.29c-1.59 0-2.72 1.11-2.72 2.81 0 1.62 1.07 2.67 2.41 2.67.28 0 .58-.04.83-.14l-1.98 3.96h1.41l2.1-4.27c.4-.8.69-1.52.69-2.27-.01-1.72-1.15-2.76-2.74-2.76zm0 4.37c-.88 0-1.4-.69-1.4-1.59 0-.98.57-1.61 1.4-1.61s1.41.62 1.41 1.61c0 .99-.58 1.59-1.41 1.59zm10.47 3.53v1.39h-1.28v-1.39h-3.73v-1.23l3.25-6.6h1.42l-3.24 6.6h2.29v-2.15h1.28v2.15h.98v1.23h-.97m6.21 1.39h-1.42l3.09-8.04h-2.81v1.45h-1.27v-2.63h5.49v1.18l-3.08 8.04M289.15 25.01l13.99 16.52.3.33c.37.4.89.66 1.48.66s1.11-.26 1.48-.66l.3-.33 14.03-16.52v22.35H325v-27.1h-4.2c-1.32 0-2.07.5-3.01 1.62l-12.88 15.34-12.84-15.34c-1.04-1.24-1.78-1.62-3.01-1.62h-4.2v27.1h4.28l.01-22.35zm-22.26 8.63c4.12 0 5.47-2.7 5.47-4.91 0-2.22-1.31-4.59-5.47-4.59h-19.33v9.5h19.33zm10.46 13.72h-4.57l-.94-4.73c-.61-3.09-2-5.11-5.45-5.11h-18.84v9.84h-4.36V20.25h23.37c6.62 0 10.26 2.97 10.26 8 0 3.49-1.9 5.91-5.35 7.33 2.51 1.02 3.78 3.02 4.21 5.1l1.67 6.68zm200.19-13.72c4.12 0 5.46-2.7 5.46-4.91 0-2.22-1.31-4.59-5.46-4.59H458.2v9.5h19.34zM488 47.36h-4.58l-.93-4.73c-.61-3.09-2-5.11-5.45-5.11H458.2v9.84h-4.36V20.25h23.38c6.61 0 10.26 2.97 10.26 8 0 3.49-1.91 5.91-5.36 7.33 2.5 1.02 3.78 3.02 4.21 5.1l1.67 6.68zm-115.03-27.1l14.29 15.45c1.3 1.41 1.91 2.28 1.91 3.97v7.68h4.36v-7.68c0-1.72.5-2.45 1.91-3.97l14.29-15.45h-6.34l-10.36 11.78c-.75.85-1.25 1.51-1.68 2.64-.5-1.11-1.03-1.84-1.73-2.64L379.3 20.26h-6.33zm72.84 4.16v-4.16h-21.35c-9.43 0-12.92 4.56-12.92 13.55 0 8.99 3.49 13.55 12.92 13.55h21.35v-4.2h-21.35c-6.03 0-8.16-2.5-8.48-7.37h29.28v-3.92h-29.28c.32-4.91 2.46-7.45 8.48-7.45h21.35zM184.6 35.39c3.92 0 5.23 2.18 5.23 4.24 0 1.74-.91 3.84-5.23 3.84h-20.24v-8.09h20.24v.01zm-20.24-3.8v-7.45h19.85c3.37 0 4.99 1.47 4.99 3.77 0 2.38-1.78 3.69-4.99 3.69h-19.85v-.01zm24.24 1.9c2.97-.83 4.76-2.89 4.76-6.14 0-2.66-1.19-7.09-9.79-7.09h-23.45v27.1h23.97c7.17 0 10.02-3.25 10.02-7.25 0-3.05-1.62-5.63-5.51-6.62zm-40.4.32c0 8.48-4.37 10.87-14.34 10.87-9.97 0-14.34-2.39-14.34-10.87 0-8.44 4.38-10.87 14.34-10.87 9.97 0 14.34 2.43 14.34 10.87zm4.48 0c0-10.2-5.84-14.77-18.82-14.77s-18.82 4.57-18.82 14.77c0 10.24 5.26 14.81 18.82 14.81 12.98 0 18.82-4.57 18.82-14.81zm214.56-9.39v-4.16h-21.35c-9.43 0-12.92 4.56-12.92 13.55 0 8.99 3.48 13.55 12.92 13.55h21.35v-4.2h-21.35c-6.02 0-8.16-2.5-8.48-7.37h29.28v-3.92h-29.28c.32-4.91 2.46-7.45 8.48-7.45h21.35zm-153.6 0c-6.02 0-8.16 2.54-8.48 7.45h29.28v3.92h-29.28c.32 4.88 2.46 7.37 8.48 7.37H235v4.2h-21.35c-9.43 0-12.92-4.56-12.92-13.55 0-9 3.49-13.55 12.92-13.55H235v4.16h-21.36zM18.63 48.63L66.06 1.14a3.808 3.808 0 0 1 5.39 0l24.83 25.15a3.796 3.796 0 0 1 0 5.38L51.39 76.52a3.808 3.808 0 0 1-5.39 0L18.63 48.63m12.7-47.49a3.808 3.808 0 0 0-5.39 0L1.11 26.29a3.796 3.796 0 0 0 0 5.38L14.8 45.35 45.2 15 31.33 1.14"/></svg>
