<svg xmlns="http://www.w3.org/2000/svg" width="19" height="17" viewBox="0 0 19 17"><path fill="#1B3E6A" d="M16.93 17H7.85c-1.14 0-2.06-.83-2.06-1.85v-3.7c0-.2.19-.37.41-.37s.41.17.41.37v3.7c0 .61.56 1.11 1.24 1.11h9.09c.68 0 1.24-.5 1.24-1.11V1.85c0-.61-.56-1.11-1.24-1.11H7.85c-.68 0-1.24.5-1.24 1.11v3.7c0 .2-.19.37-.41.37s-.42-.17-.42-.38v-3.7C5.78.83 6.71 0 7.85 0h9.09C18.07 0 19 .83 19 1.85v13.3c0 1.02-.93 1.85-2.07 1.85zm-5.36-8.5c0-.11-.05-.2-.13-.27l-3.3-2.95a.453.453 0 0 0-.58 0c-.16.14-.16.38 0 .52l2.6 2.33H.41c-.22 0-.41.17-.41.37s.19.37.41.37h9.74l-2.6 2.33c-.16.14-.16.38 0 .52a.436.436 0 0 0 .58 0l3.3-2.96c.09-.08.14-.16.14-.26z"/></svg>