<?xml version="1.0" encoding="UTF-8" standalone="no"?>
<svg width="583px" height="436px" viewBox="0 0 583 436" version="1.1" xmlns="http://www.w3.org/2000/svg" xmlns:xlink="http://www.w3.org/1999/xlink">
    <!-- Generator: Sketch 3.8.3 (29802) - http://www.bohemiancoding.com/sketch -->
    <title>Slice 1</title>
    <desc>Created with Sketch.</desc>
    <defs></defs>
    <g id="Page-1" stroke="none" stroke-width="1" fill="none" fill-rule="evenodd">
        <g id="icon-email--blue" transform="translate(1.000000, 1.000000)" fill="#1B3F6A">
            <path d="M472.7,3.67454209e-14 L108.7,3.67454209e-14 C90.910188,-0.0185215224 73.3912719,4.35777241 57.7,12.74 L271.13,226.17 C281.5,236.5 299.9,236.5 310.29,226.17 L523.7,12.74 C508.004401,4.36901085 490.488346,-0.00656835955 472.7,3.67454209e-14 L472.7,3.67454209e-14 Z" id="Shape"></path>
            <path d="M231.98,265.31 L190.39,223.72 L22.26,391.86 C42.7477403,418.952008 74.7534822,434.869738 108.72,434.86 L472.7,434.86 C506.667106,434.8604 538.67196,418.944953 559.17,391.86 L391,223.72 L349.44,265.31 C316.96715,297.655831 264.45285,297.655831 231.98,265.31 L231.98,265.31 Z" id="Shape"></path>
            <path d="M0,326.16 C0,329.26 0.21,332.32 0.45,335.34 L151.24,184.57 L17.08,50.4 C5.92739678,67.8106625 -8.67005031e-05,88.0536433 0,108.73 L0,326.16 L0,326.16 Z" id="Shape"></path>
            <path d="M581.4,108.73 C581.401439,88.0503217 575.473923,67.8037615 564.32,50.39 L430.14,184.57 L580.94,335.34 C581.17,332.34 581.39,329.26 581.39,326.16 L581.39,108.73 L581.4,108.73 Z" id="Shape"></path>
        </g>
    </g>
</svg>