<svg id="Layer_1" data-name="Layer 1" xmlns="http://www.w3.org/2000/svg" viewBox="0 0 1594 1594"><defs><style>.cls-1{fill:#fff;}.cls-2{fill:#c40000;}</style></defs><title>icon-error--red</title><circle class="cls-1" cx="797" cy="797" r="797"/><path class="cls-2" d="M594,373a23.77,23.77,0,0,0-23.76,23.76v297a23.76,23.76,0,0,0,47.52,0v-297A23.77,23.77,0,0,0,594,373Z" transform="translate(203 203)"/><path class="cls-2" d="M594,791.28A23.77,23.77,0,0,0,570.24,815v47.52a23.76,23.76,0,0,0,47.52,0V815A23.77,23.77,0,0,0,594,791.28Z" transform="translate(203 203)"/><path class="cls-2" d="M658.33,141.25a74.29,74.29,0,0,0-128.66,0L70.6,936.37c-13.42,23.26-13.42,49.85,0,73.1s37.48,36,64.33,36h918.13c26.85,0,50.91-12.71,64.33-36a72.46,72.46,0,0,0,0-73.69Zm417.92,844.47c-2.33,4-9.24,12.2-23.18,12.2H134.93c-13.94,0-20.85-8.19-23.18-12.2a25.16,25.16,0,0,1,0-26.17L570.83,164.72A26.05,26.05,0,0,1,594,151.48a26.42,26.42,0,0,1,23.18,13.45L1076.25,959.5A25.28,25.28,0,0,1,1076.25,985.72Z" transform="translate(203 203)"/></svg>