<svg xmlns="http://www.w3.org/2000/svg" width="23" height="21" viewBox="0 0 23 21"><path fill="#1b3e6a" d="M1.858 19.336c.023.068.068.158.135.315.067.134.112.247.157.359.067.112.112.202.18.292.089.134.202.202.336.202.135 0 .225-.045.292-.135a.445.445 0 0 0 .112-.314c0-.068 0-.18-.022-.315-.023-.157-.045-.246-.045-.291a19.94 19.94 0 0 1-.067-1.549c0-.831.089-1.594.224-2.267a7.737 7.737 0 0 1 .606-1.728 4.602 4.602 0 0 1 1.01-1.257 5.63 5.63 0 0 1 1.325-.876 7.578 7.578 0 0 1 1.66-.538c.629-.113 1.28-.202 1.931-.27a31.884 31.884 0 0 1 2.199-.067h2.806v3.187c0 .225.068.404.225.561.179.157.359.247.583.247.202 0 .404-.09.561-.247l6.397-6.397a.764.764 0 0 0 .247-.561.766.766 0 0 0-.247-.561L16.066.729a.804.804 0 0 0-.561-.247c-.224 0-.404.09-.583.247a.746.746 0 0 0-.225.561v3.187h-2.806c-5.948 0-9.606 1.684-10.953 5.051-.449 1.122-.673 2.514-.673 4.175 0 1.369.538 3.254 1.593 5.633"/></svg>
