<?xml version="1.0" encoding="utf-8"?>
<!-- Generator: Adobe Illustrator 16.0.0, SVG Export Plug-In . SVG Version: 6.00 Build 0)  -->
<!DOCTYPE svg PUBLIC "-//W3C//DTD SVG 1.1//EN" "http://www.w3.org/Graphics/SVG/1.1/DTD/svg11.dtd">
<svg version="1.1" id="Layer_1" xmlns="http://www.w3.org/2000/svg" xmlns:xlink="http://www.w3.org/1999/xlink" x="0px" y="0px"
	 width="35px" height="31px" viewBox="0 0 35 31" enable-background="new 0 0 35 31" xml:space="preserve">
<path fill="#1B3F6A" d="M34.45,4.81c-1.27,0.56-2.63,0.94-4.06,1.11c1.46-0.87,2.58-2.26,3.11-3.91c-1.37,0.81-2.88,1.4-4.49,1.72
	c-1.29-1.37-3.13-2.23-5.16-2.23c-3.9,0-7.07,3.17-7.07,7.07c0,0.55,0.06,1.09,0.18,1.61C11.09,9.88,5.88,7.07,2.39,2.79
	C1.78,3.84,1.43,5.05,1.43,6.35c0,2.45,1.25,4.62,3.14,5.88c-1.16-0.04-2.25-0.35-3.2-0.88c0,0.03,0,0.06,0,0.09
	c0,3.42,2.44,6.28,5.67,6.93c-0.59,0.16-1.22,0.25-1.86,0.25c-0.46,0-0.9-0.04-1.33-0.13c0.9,2.81,3.51,4.85,6.6,4.91
	c-2.42,1.9-5.47,3.03-8.78,3.03c-0.57,0-1.13-0.03-1.69-0.1c3.13,2.01,6.84,3.18,10.84,3.18c13,0,20.11-10.77,20.11-20.11
	c0-0.31-0.01-0.61-0.02-0.92C32.3,7.48,33.5,6.23,34.45,4.81z"/>
</svg>
