<svg width="583" height="436" viewBox="0 0 583 436" xmlns="http://www.w3.org/2000/svg"><title>Slice 1</title><g fill="#1B3F6A" fill-rule="evenodd"><path d="M473.7 1h-364a108 108 0 0 0-51 12.74l213.43 213.43c10.37 10.33 28.77 10.33 39.16 0L524.7 13.74A108.29 108.29 0 0 0 473.7 1z"/><path d="M232.98 266.31l-41.59-41.59L23.26 392.86a108.36 108.36 0 0 0 86.46 43H473.7a108.44 108.44 0 0 0 86.47-43L392 224.72l-41.56 41.59c-32.473 32.346-84.987 32.346-117.46 0zM1 327.16c0 3.1.21 6.16.45 9.18l150.79-150.77L18.08 51.4A108.14 108.14 0 0 0 1 109.73v217.43zM582.4 109.73a108.15 108.15 0 0 0-17.08-58.34L431.14 185.57l150.8 150.77c.23-3 .45-6.08.45-9.18V109.73h.01z"/></g></svg>