<?xml version="1.0" encoding="utf-8"?>
<!-- Generator: Adobe Illustrator 16.0.0, SVG Export Plug-In . SVG Version: 6.00 Build 0)  -->
<!DOCTYPE svg PUBLIC "-//W3C//DTD SVG 1.1//EN" "http://www.w3.org/Graphics/SVG/1.1/DTD/svg11.dtd">
<svg version="1.1" id="Layer_1" xmlns="http://www.w3.org/2000/svg" xmlns:xlink="http://www.w3.org/1999/xlink" x="0px" y="0px"
	 width="35px" height="31px" viewBox="0 0 35 31" enable-background="new 0 0 35 31" xml:space="preserve">
<path fill="#1B3F6A" d="M18.23,0C9.77,0,5.5,6.07,5.5,11.12c0,3.06,1.16,5.79,3.65,6.8c0.41,0.17,0.77,0.01,0.89-0.45
	c0.08-0.31,0.28-1.1,0.36-1.43c0.12-0.45,0.07-0.6-0.26-0.99c-0.72-0.85-1.18-1.94-1.18-3.49c0-4.5,3.37-8.53,8.77-8.53
	c4.78,0,7.41,2.92,7.41,6.82c0,5.13-2.27,9.47-5.65,9.47c-1.86,0-3.26-1.54-2.81-3.43c0.54-2.26,1.57-4.69,1.57-6.32
	c0-1.46-0.78-2.67-2.4-2.67c-1.9,0-3.43,1.97-3.43,4.61c0,1.68,0.57,2.82,0.57,2.82s-1.95,8.26-2.29,9.7
	c-0.68,2.88-0.1,6.41-0.05,6.77c0.03,0.21,0.3,0.26,0.42,0.1c0.18-0.23,2.44-3.03,3.21-5.83c0.22-0.79,1.25-4.9,1.25-4.9
	c0.62,1.18,2.43,2.22,4.35,2.22c5.72,0,9.61-5.22,9.61-12.2C29.5,4.92,25.03,0,18.23,0z"/>
</svg>
