<svg xmlns="http://www.w3.org/2000/svg" width="35" height="31" viewBox="0 0 35 31"><path fill="#1b3e6a" d="M18.23 0C9.77 0 5.5 6.07 5.5 11.12c0 3.06 1.16 5.79 3.65 6.8.41.17.77.01.89-.45.08-.31.28-1.1.36-1.43.12-.45.07-.6-.26-.99-.72-.85-1.18-1.94-1.18-3.49 0-4.5 3.37-8.53 8.77-8.53 4.78 0 7.41 2.92 7.41 6.82 0 5.13-2.27 9.47-5.65 9.47-1.86 0-3.26-1.54-2.81-3.43.54-2.26 1.57-4.69 1.57-6.32 0-1.46-.78-2.67-2.4-2.67-1.9 0-3.43 1.97-3.43 4.61 0 1.68.57 2.82.57 2.82l-2.29 9.7c-.68 2.88-.1 6.41-.05 6.77.03.21.3.26.42.1.18-.23 2.44-3.03 3.21-5.83.22-.79 1.25-4.9 1.25-4.9.62 1.18 2.43 2.22 4.35 2.22 5.72 0 9.61-5.22 9.61-12.2C29.5 4.92 25.03 0 18.23 0z"/></svg>
