<svg xmlns="http://www.w3.org/2000/svg" width="17" height="17" viewBox="0 0 17 17"><path fill="#1B3E6A" d="M9.71 1.08c.08 0 .13.01.15.02.01.02.02.07.02.15v1.81c0 .25.16.47.39.55.51.18 1 .47 1.48.87.11.09.24.14.38.14.1 0 .2-.03.29-.08l1.48-.86s.01 0 .01-.01c.06-.04.1-.05.12-.06.02.02.05.05.09.12v.01l1.25 2.16c.04.07.06.12.06.14-.01.01-.04.05-.11.09l-1.5.85c-.2.12-.32.34-.29.58.03.21.04.43.05.65v.15c0 .3-.02.59-.07.88-.04.24.07.48.28.6l1.52.88c.01 0 .01.01.02.01.06.03.08.05.1.07 0 .02-.01.04-.02.07 0 .01 0 .02-.01.03 0 .01-.01.02-.02.04v.01l-1.24 2.15c-.04.07-.08.1-.09.12-.02 0-.06-.02-.14-.06l-1.56-.9a.57.57 0 0 0-.64.04c-.16.12-.31.24-.47.36-.32.19-.65.35-.96.46-.23.08-.38.3-.38.55v1.83c0 .08-.01.13-.02.15-.02.01-.07.02-.15.02H7.29c-.08 0-.12-.01-.14-.02a.396.396 0 0 1-.02-.15v-1.8c0-.24-.15-.46-.38-.55-.54-.2-1.03-.49-1.49-.87a.594.594 0 0 0-.38-.14c-.1 0-.2.02-.29.08l-1.48.84a.52.52 0 0 1-.14.06c-.01-.01-.05-.05-.08-.11L1.66 10.9l-.06-.12c-.01-.03-.02-.05-.02-.06.01-.02.04-.05.12-.09l1.51-.87c.21-.12.33-.37.28-.61-.03-.2-.05-.4-.06-.62v-.15c0-.3.02-.59.08-.88a.592.592 0 0 0-.29-.61l-1.51-.86c-.07-.05-.11-.08-.12-.09v-.01c0-.02.02-.06.06-.14L2.9 3.64l.01-.01c.03-.06.06-.09.08-.11.02 0 .06.02.13.06l1.56.9a.57.57 0 0 0 .64-.04l.01-.01a4.785 4.785 0 0 1 1.41-.81c.23-.08.38-.3.38-.55V1.25c0-.08.01-.13.02-.15a.37.37 0 0 1 .14-.02h2.43m0-.58H7.29c-.5 0-.75.25-.75.75v1.83a5.4 5.4 0 0 0-1.08.53c-.16.11-.33.24-.5.36l-1.56-.9a.848.848 0 0 0-.43-.13c-.23 0-.43.14-.58.41L1.13 5.51c-.12.23-.17.43-.1.61.05.15.17.28.38.41l1.52.87c-.05.32-.08.64-.08.98v.17c.01.23.03.47.07.7l-1.51.87c-.4.24-.51.54-.32.94.01.01.03.04.04.08l1.24 2.16c.16.27.35.4.58.4.14 0 .28-.05.44-.14l1.48-.84c.51.43 1.06.75 1.66.97v1.8c0 .5.25.75.75.75H9.7c.5 0 .75-.25.75-.75v-1.83c.37-.14.73-.32 1.08-.53.17-.12.33-.25.5-.37l1.56.9c.16.09.3.14.44.14.23 0 .42-.13.58-.4l1.24-2.16c.04-.07.07-.12.08-.18.05-.17.07-.32.03-.44-.05-.15-.18-.29-.39-.4l-1.52-.88c.05-.32.08-.64.08-.98v-.17c-.01-.24-.03-.47-.06-.71l1.51-.86c.43-.26.51-.59.26-1.02L14.6 3.44c-.16-.28-.35-.42-.58-.42-.13 0-.28.05-.44.14l-1.48.86c-.51-.43-1.07-.76-1.66-.97v-1.8c.02-.5-.23-.75-.73-.75zM8.53 11.35c-.82 0-1.53-.3-2.13-.89-.58-.58-.88-1.3-.88-2.13 0-.84.29-1.56.88-2.14s1.31-.89 2.13-.89 1.54.3 2.13.88c.59.59.89 1.31.89 2.14 0 .82-.3 1.53-.89 2.13-.59.59-1.31.9-2.13.9zm0-5.44c-.67 0-1.23.23-1.7.7s-.7 1.03-.7 1.71c0 .67.23 1.23.7 1.7.48.48 1.04.72 1.7.72.66 0 1.21-.23 1.7-.72.48-.48.72-1.04.72-1.7 0-.66-.24-1.24-.72-1.71-.47-.47-1.03-.7-1.7-.7z"/></svg>