<svg xmlns="http://www.w3.org/2000/svg" width="583" height="436" viewBox="0 0 583 436"><path fill="#1B3F6A" d="M232.98 266.311l-41.59-41.59L23.26 392.86a108.36 108.36 0 0 0 86.46 43H473.7a108.441 108.441 0 0 0 86.47-43L392 224.721l-41.561 41.59c-32.472 32.345-84.986 32.345-117.459 0zM1 327.16c0 3.1.21 6.16.45 9.18l150.79-150.77L18.08 51.4A108.14 108.14 0 0 0 1 109.73v217.43zm581.4-217.43a108.161 108.161 0 0 0-17.08-58.34L431.14 185.57l150.8 150.77c.229-3 .449-6.08.449-9.18V109.73h.011zM473.7 1h-364a107.996 107.996 0 0 0-51 12.74l213.43 213.43c10.37 10.33 28.771 10.33 39.16 0L524.7 13.74A108.296 108.296 0 0 0 473.7 1z"/></svg>