<svg xmlns="http://www.w3.org/2000/svg" width="21" height="21" viewBox="0 0 21 21"><path fill="#1A3F6B" d="M1.093 19.096a.78.78 0 0 0 .561.225.746.746 0 0 0 .561-.225l1.616-1.616a9.337 9.337 0 0 0 3.053 1.953 9.247 9.247 0 0 0 3.546.696c2.29 0 4.287-.696 5.993-2.088 1.706-1.391 2.828-3.21 3.345-5.432.022-.022.022-.045.022-.089a.474.474 0 0 0-.112-.292.476.476 0 0 0-.292-.112h-2.402c-.179 0-.314.089-.381.291-.359.831-.561 1.325-.674 1.459-.583.943-1.346 1.706-2.312 2.245a6.418 6.418 0 0 1-5.476.359 5.95 5.95 0 0 1-2.02-1.279l1.705-1.706a.8.8 0 0 0 .247-.561.764.764 0 0 0-.247-.562.763.763 0 0 0-.561-.246H1.654a.803.803 0 0 0-.561.246.748.748 0 0 0-.225.562v5.611a.78.78 0 0 0 .225.561zm.112-10.302c.067.067.18.112.292.112h2.491c.18 0 .292-.09.359-.292.36-.83.584-1.324.674-1.459a6.381 6.381 0 0 1 2.334-2.244 6.276 6.276 0 0 1 3.12-.809c1.684 0 3.142.562 4.377 1.706l-1.728 1.729a.804.804 0 0 0-.247.561c0 .224.09.404.247.561a.764.764 0 0 0 .561.247h5.611c.225 0 .404-.09.561-.247a.766.766 0 0 0 .247-.561V2.486a.804.804 0 0 0-.247-.561.743.743 0 0 0-.561-.224.779.779 0 0 0-.561.224l-1.638 1.616a9.867 9.867 0 0 0-3.053-1.952 9.428 9.428 0 0 0-3.569-.696c-2.289 0-4.287.696-6.015 2.087-1.706 1.392-2.829 3.21-3.367 5.432v.09c0 .112.022.202.112.292z"/></svg>
