<svg xmlns="http://www.w3.org/2000/svg" width="35" height="31" viewBox="0 0 35 31"><path fill="#1B3F6A" d="M34.45 4.81c-1.27.56-2.63.94-4.06 1.11a7.084 7.084 0 0 0 3.11-3.91c-1.37.81-2.88 1.4-4.49 1.72a7.076 7.076 0 0 0-12.23 4.84c0 .55.06 1.09.18 1.61-5.87-.3-11.08-3.11-14.57-7.39a7.05 7.05 0 0 0-.96 3.56c0 2.45 1.25 4.62 3.14 5.88a7.049 7.049 0 0 1-3.2-.88v.09c0 3.42 2.44 6.28 5.67 6.93-.59.16-1.22.25-1.86.25-.46 0-.9-.04-1.33-.13.9 2.81 3.51 4.85 6.6 4.91a14.17 14.17 0 0 1-8.78 3.03c-.57 0-1.13-.03-1.69-.1 3.13 2.01 6.84 3.18 10.84 3.18 13 0 20.11-10.77 20.11-20.11 0-.31-.01-.61-.02-.92 1.39-1 2.59-2.25 3.54-3.67z"/></svg>