<svg id="Isolation_Mode" data-name="Isolation Mode" xmlns="http://www.w3.org/2000/svg" viewBox="0 0 328.23 391.68"><title>icon-shield</title><path d="M307.2,200.16v0.12a9.12,9.12,0,0,0-7.55,4.11c-16.76,24.3-69.87,45-130.63,45.32h-0.48c-0.36,0-.72-0.12-1.08-0.12a9.19,9.19,0,0,0-9,7.29,812.41,812.41,0,0,0-13.79,91.24c-4.6,50-5.54,108.47,14.65,146.24,15.13,28.29,50.92,51,82.87,68.34a554.16,554.16,0,0,0,57.75,27.2,9.26,9.26,0,0,0,6.12,1.91,9.13,9.13,0,0,0,6.14-2h0a547.78,547.78,0,0,0,57.68-27.13c32-17.31,67.7-40,82.83-68.34,20.19-37.77,19.25-96.29,14.65-146.25a812.43,812.43,0,0,0-13.79-91.24,9.18,9.18,0,0,0-9.27-7.29h-0.74c-58.4-.23-109.7-19.79-127.6-43.41a9.22,9.22,0,0,0-8.77-6v0Zm69.15,118.23a9.18,9.18,0,0,1,10.11,14.53L286.31,457.23a9.18,9.18,0,0,1-11.38,2.39l-55.57-28.8A9.18,9.18,0,1,1,227,414.14q0.4,0.18.77,0.4l48.91,25.34,95.43-118.48a9.19,9.19,0,0,1,4.19-3h0Z" transform="translate(-141.89 -200.16)" fill="#666666" /></svg>
