<?xml version="1.0" encoding="UTF-8" standalone="no"?>
<svg width="21px" height="21px" viewBox="0 0 21 21" version="1.1" xmlns="http://www.w3.org/2000/svg" xmlns:xlink="http://www.w3.org/1999/xlink">
    <!-- Generator: Sketch 3.8.3 (29802) - http://www.bohemiancoding.com/sketch -->
    <title>fa-refresh</title>
    <desc>Created with Sketch.</desc>
    <defs></defs>
    <g id="Introduction" stroke="none" stroke-width="1" fill="none" fill-rule="evenodd">
        <g transform="translate(-364.000000, -606.000000)" id="fa-refresh" fill="#1A3F6B">
            <g transform="translate(365.000000, 607.000000)">
                <path d="M0.093,18.096 C0.25,18.253 0.452,18.321 0.654,18.321 C0.878,18.321 1.058,18.253 1.215,18.096 L2.831,16.48 C3.729,17.333 4.739,17.984 5.884,18.433 C7.028,18.904 8.218,19.129 9.43,19.129 C11.72,19.129 13.717,18.433 15.423,17.041 C17.129,15.65 18.251,13.831 18.768,11.609 C18.79,11.587 18.79,11.564 18.79,11.52 C18.79,11.407 18.745,11.318 18.678,11.228 C18.588,11.161 18.498,11.116 18.386,11.116 L15.984,11.116 C15.805,11.116 15.67,11.205 15.603,11.407 C15.244,12.238 15.042,12.732 14.929,12.866 C14.346,13.809 13.583,14.572 12.617,15.111 C11.63,15.65 10.597,15.919 9.475,15.919 C8.667,15.919 7.882,15.762 7.141,15.47 C6.378,15.178 5.704,14.752 5.121,14.191 L6.826,12.485 C6.984,12.328 7.073,12.126 7.073,11.924 C7.073,11.699 6.984,11.52 6.826,11.362 C6.669,11.205 6.49,11.116 6.265,11.116 L0.654,11.116 C0.452,11.116 0.25,11.205 0.093,11.362 C-0.064,11.52 -0.132,11.699 -0.132,11.924 L-0.132,17.535 C-0.132,17.737 -0.064,17.939 0.093,18.096 L0.093,18.096 Z M0.205,7.794 C0.272,7.861 0.385,7.906 0.497,7.906 L2.988,7.906 C3.168,7.906 3.28,7.816 3.347,7.614 C3.707,6.784 3.931,6.29 4.021,6.155 C4.604,5.212 5.39,4.449 6.355,3.911 C7.32,3.372 8.353,3.102 9.475,3.102 C11.159,3.102 12.617,3.664 13.852,4.808 L12.124,6.537 C11.967,6.694 11.877,6.896 11.877,7.098 C11.877,7.322 11.967,7.502 12.124,7.659 C12.281,7.816 12.46,7.906 12.685,7.906 L18.296,7.906 C18.521,7.906 18.7,7.816 18.857,7.659 C19.014,7.502 19.104,7.322 19.104,7.098 L19.104,1.486 C19.104,1.284 19.014,1.082 18.857,0.925 C18.7,0.768 18.521,0.701 18.296,0.701 C18.094,0.701 17.892,0.768 17.735,0.925 L16.097,2.541 C15.221,1.711 14.189,1.06 13.044,0.589 C11.877,0.117 10.687,-0.107 9.475,-0.107 C7.186,-0.107 5.188,0.589 3.46,1.98 C1.754,3.372 0.631,5.19 0.093,7.412 L0.093,7.502 C0.093,7.614 0.115,7.704 0.205,7.794 L0.205,7.794 Z" id="Fill-15"></path>
            </g>
        </g>
    </g>
</svg>