<svg xmlns="http://www.w3.org/2000/svg" viewBox="0 0 612 612"><path fill="#1b3e6a" d="M584.18 222.55H472.91c-27.82 0-27.82 0-27.82 27.82v111.27c0 27.82 0 27.82 27.82 27.82h111.27c27.82 0 27.82 0 27.82-27.82V250.36c0-27.81 0-27.81-27.82-27.81zM361.64 0H250.36c-27.82 0-27.82 0-27.82 27.82v111.27c0 27.82 0 27.82 27.82 27.82h111.28c27.82 0 27.82 0 27.82-27.82V27.82C389.45 0 389.45 0 361.64 0zm222.54 445.09H472.91c-27.82 0-27.82 0-27.82 27.82v111.27c0 27.82 0 27.82 27.82 27.82h111.27C612 612 612 612 612 584.18V472.91c0-27.82 0-27.82-27.82-27.82zM361.64 222.55H250.36c-27.82 0-27.82 0-27.82 27.82v111.27c0 27.82 0 27.82 27.82 27.82h111.28c27.82 0 27.82 0 27.82-27.82V250.36c-.01-27.81-.01-27.81-27.82-27.81zM139.09 0H27.82C0 0 0 0 0 27.82v111.27c0 27.81 0 27.81 27.82 27.81h111.27c27.82 0 27.82 0 27.82-27.82V27.82C166.91 0 166.91 0 139.09 0zm222.55 445.09H250.36c-27.82 0-27.82 0-27.82 27.82v111.27c0 27.82 0 27.82 27.82 27.82h111.28c27.82 0 27.82 0 27.82-27.82V472.91c-.01-27.82-.01-27.82-27.82-27.82zM139.09 222.55H27.82C0 222.55 0 222.55 0 250.36v111.28c0 27.82 0 27.82 27.82 27.82h111.27c27.82 0 27.82 0 27.82-27.82V250.36c0-27.81 0-27.81-27.82-27.81zm0 222.54H27.82C0 445.09 0 445.09 0 472.91v111.27C0 612 0 612 27.82 612h111.27c27.82 0 27.82 0 27.82-27.82V472.91c0-27.82 0-27.82-27.82-27.82zM584.18 0H472.91c-27.82 0-27.82 0-27.82 27.82v111.27c0 27.82 0 27.82 27.82 27.82h111.27c27.82 0 27.82 0 27.82-27.82V27.82C612 0 612 0 584.18 0z"/></svg>