<?xml version="1.0" encoding="UTF-8" standalone="no"?>
<svg width="575px" height="574px" viewBox="0 0 575 574" version="1.1" xmlns="http://www.w3.org/2000/svg" xmlns:xlink="http://www.w3.org/1999/xlink">
    <!-- Generator: Sketch 3.8.3 (29802) - http://www.bohemiancoding.com/sketch -->
    <title>Slice 1</title>
    <desc>Created with Sketch.</desc>
    <defs></defs>
    <g id="Page-1" stroke="none" stroke-width="1" fill="none" fill-rule="evenodd">
        <g id="Vector-Smart-Object2" transform="translate(1.000000, 0.000000)" fill="#1B3F6A">
            <path d="M286.62,0 C128.62,0 0,128.58 0,286.65 C0,444.72 128.62,573.3 286.62,573.3 C444.62,573.3 573.23,444.72 573.23,286.65 C573.23,128.58 444.69,0 286.62,0 L286.62,0 Z M286.62,512.3 C162.02,512.3 60.94,411.3 60.94,286.67 C60.94,162.04 162.03,61 286.62,61 C411.21,61 512.29,162.01 512.29,286.65 C512.29,411.29 411.24,512.3 286.62,512.3 L286.62,512.3 Z" id="Shape"></path>
            <path d="M228.87,192.65 C223.8,187.55 210.87,187.55 210.87,192.65 L210.87,399.78 C210.87,404.88 223.87,404.88 228.97,399.78 L398.97,305.43 C401.432055,303.003929 402.826573,299.697237 402.845337,296.240767 C402.864102,292.784297 401.505569,289.46266 399.07,287.01 L228.87,192.65 Z" id="Shape"></path>
        </g>
    </g>
</svg>