<?xml version="1.0" encoding="utf-8"?>
<!-- Generator: Adobe Illustrator 16.0.0, SVG Export Plug-In . SVG Version: 6.00 Build 0)  -->
<!DOCTYPE svg PUBLIC "-//W3C//DTD SVG 1.1//EN" "http://www.w3.org/Graphics/SVG/1.1/DTD/svg11.dtd">
<svg version="1.1" id="Layer_1" xmlns="http://www.w3.org/2000/svg" xmlns:xlink="http://www.w3.org/1999/xlink" x="0px" y="0px"
	 width="35px" height="31px" viewBox="0 0 35 31" enable-background="new 0 0 35 31" xml:space="preserve">
<path fill="#1B3F6A" d="M27.56,14.77H7.44c-3.2,0-5.79,2.59-5.79,5.79v4.65c0,3.2,2.59,5.79,5.79,5.79h20.12
	c3.2,0,5.79-2.59,5.79-5.79v-4.65C33.35,17.36,30.75,14.77,27.56,14.77z M11.67,18.39H9.8v9.29H7.99v-9.29H6.12v-1.58h5.55V18.39z
	 M16.95,27.68h-1.6V26.8c-0.3,0.32-0.6,0.57-0.93,0.74c-0.32,0.17-0.63,0.26-0.93,0.26c-0.37,0-0.65-0.12-0.84-0.36
	c-0.19-0.24-0.28-0.59-0.28-1.07v-6.71h1.6v6.15c0,0.19,0.04,0.33,0.1,0.41c0.07,0.09,0.18,0.13,0.33,0.13
	c0.12,0,0.27-0.06,0.45-0.17c0.18-0.11,0.35-0.26,0.5-0.43v-6.09h1.6V27.68z M22.77,26.02c0,0.57-0.12,1-0.38,1.31
	c-0.25,0.3-0.61,0.45-1.09,0.45c-0.32,0-0.6-0.06-0.84-0.17c-0.24-0.12-0.48-0.3-0.69-0.54v0.61h-1.62V16.81h1.62v3.5
	c0.22-0.24,0.45-0.43,0.69-0.56c0.25-0.13,0.49-0.19,0.74-0.19c0.51,0,0.89,0.17,1.16,0.51c0.27,0.34,0.4,0.84,0.4,1.5V26.02z
	 M28.33,23.86h-3.07v1.51c0,0.42,0.05,0.72,0.16,0.88c0.11,0.16,0.29,0.24,0.54,0.24c0.27,0,0.45-0.07,0.56-0.21
	c0.1-0.14,0.16-0.44,0.16-0.92v-0.37h1.65v0.41c0,0.82-0.2,1.44-0.61,1.86c-0.4,0.41-1,0.62-1.8,0.62c-0.72,0-1.29-0.22-1.7-0.66
	c-0.41-0.44-0.62-1.05-0.62-1.82v-3.6c0-0.69,0.23-1.26,0.68-1.7c0.45-0.44,1.04-0.66,1.75-0.66c0.73,0,1.3,0.2,1.69,0.61
	c0.39,0.41,0.59,0.99,0.59,1.75V23.86z M26.51,21.08c0.11,0.14,0.17,0.38,0.17,0.72v0.81h-1.42V21.8c0-0.34,0.05-0.58,0.17-0.72
	c0.11-0.15,0.29-0.22,0.55-0.22C26.22,20.86,26.4,20.94,26.51,21.08z M20.95,21.04c0.11,0.14,0.17,0.34,0.17,0.62v4.14
	c0,0.26-0.05,0.44-0.14,0.55c-0.09,0.11-0.24,0.17-0.43,0.17c-0.14,0-0.26-0.03-0.39-0.09c-0.12-0.06-0.25-0.16-0.38-0.29v-5
	c0.11-0.11,0.22-0.19,0.33-0.25c0.11-0.05,0.23-0.08,0.34-0.08C20.66,20.84,20.83,20.91,20.95,21.04z M10.08,7.23L7.66,0H9.7
	l1.32,4.79h0.13L12.41,0h2.06l-2.36,7.01v4.97h-2.03V7.23z M17.23,12.2c0.82,0,1.46-0.22,1.93-0.65c0.47-0.43,0.7-1.02,0.7-1.78
	V5.21c0-0.67-0.24-1.23-0.71-1.65c-0.48-0.43-1.09-0.64-1.84-0.64c-0.82,0-1.47,0.2-1.96,0.61c-0.49,0.41-0.73,0.95-0.73,1.64v4.58
	c0,0.75,0.24,1.35,0.71,1.79C15.8,11.98,16.44,12.2,17.23,12.2z M16.48,5.1c0-0.19,0.07-0.35,0.2-0.47
	c0.14-0.12,0.32-0.18,0.54-0.18c0.24,0,0.43,0.06,0.58,0.18c0.15,0.12,0.22,0.28,0.22,0.47v4.81c0,0.24-0.07,0.42-0.22,0.56
	c-0.14,0.14-0.34,0.2-0.58,0.2c-0.24,0-0.42-0.06-0.55-0.2c-0.13-0.13-0.19-0.32-0.19-0.56V5.1z M21.64,11.71
	c-0.21-0.26-0.32-0.65-0.32-1.18V3.14h1.8v6.78c0,0.21,0.04,0.36,0.12,0.45c0.07,0.1,0.2,0.14,0.37,0.14c0.13,0,0.3-0.06,0.5-0.19
	c0.2-0.13,0.39-0.28,0.56-0.47V3.14h1.8v8.84h-1.8V11c-0.33,0.36-0.68,0.64-1.04,0.82c-0.36,0.19-0.71,0.28-1.05,0.28
	C22.17,12.11,21.85,11.97,21.64,11.71z"/>
</svg>
