<svg xmlns="http://www.w3.org/2000/svg" width="35" height="31" viewBox="0 0 35 31"><path fill="#1B3F6A" d="M27.56 14.77H7.44c-3.2 0-5.79 2.59-5.79 5.79v4.65c0 3.2 2.59 5.79 5.79 5.79h20.12c3.2 0 5.79-2.59 5.79-5.79v-4.65c0-3.2-2.6-5.79-5.79-5.79zm-15.89 3.62H9.8v9.29H7.99v-9.29H6.12v-1.58h5.55v1.58zm5.28 9.29h-1.6v-.88c-.3.32-.6.57-.93.74-.32.17-.63.26-.93.26-.37 0-.65-.12-.84-.36-.19-.24-.28-.59-.28-1.07v-6.71h1.6v6.15c0 .19.04.33.1.41.07.09.18.13.33.13.12 0 .27-.06.45-.17.18-.11.35-.26.5-.43v-6.09h1.6v8.02zm5.82-1.66c0 .57-.12 1-.38 1.31-.25.3-.61.45-1.09.45-.32 0-.6-.06-.84-.17-.24-.12-.48-.3-.69-.54v.61h-1.62V16.81h1.62v3.5c.22-.24.45-.43.69-.56.25-.13.49-.19.74-.19.51 0 .89.17 1.16.51.27.34.4.84.4 1.5v4.45zm5.56-2.16h-3.07v1.51c0 .42.05.72.16.88.11.16.29.24.54.24.27 0 .45-.07.56-.21.1-.14.16-.44.16-.92v-.37h1.65v.41c0 .82-.2 1.44-.61 1.86-.4.41-1 .62-1.8.62-.72 0-1.29-.22-1.7-.66-.41-.44-.62-1.05-.62-1.82v-3.6c0-.69.23-1.26.68-1.7.45-.44 1.04-.66 1.75-.66.73 0 1.3.2 1.69.61.39.41.59.99.59 1.75v2.06zm-1.82-2.78c.11.14.17.38.17.72v.81h-1.42v-.81c0-.34.05-.58.17-.72.11-.15.29-.22.55-.22.24 0 .42.08.53.22zm-5.56-.04c.11.14.17.34.17.62v4.14c0 .26-.05.44-.14.55-.09.11-.24.17-.43.17a.89.89 0 0 1-.39-.09c-.12-.06-.25-.16-.38-.29v-5c.11-.11.22-.19.33-.25.11-.05.23-.08.34-.08.21.03.38.1.5.23zM10.08 7.23L7.66 0H9.7l1.32 4.79h.13L12.41 0h2.06l-2.36 7.01v4.97h-2.03V7.23zm7.15 4.97c.82 0 1.46-.22 1.93-.65.47-.43.7-1.02.7-1.78V5.21c0-.67-.24-1.23-.71-1.65-.48-.43-1.09-.64-1.84-.64-.82 0-1.47.2-1.96.61s-.73.95-.73 1.64v4.58c0 .75.24 1.35.71 1.79.47.44 1.11.66 1.9.66zm-.75-7.1c0-.19.07-.35.2-.47a.8.8 0 0 1 .54-.18c.24 0 .43.06.58.18.15.12.22.28.22.47v4.81c0 .24-.07.42-.22.56-.14.14-.34.2-.58.2-.24 0-.42-.06-.55-.2-.13-.13-.19-.32-.19-.56V5.1zm5.16 6.61c-.21-.26-.32-.65-.32-1.18V3.14h1.8v6.78c0 .21.04.36.12.45.07.1.2.14.37.14.13 0 .3-.06.5-.19s.39-.28.56-.47V3.14h1.8v8.84h-1.8V11c-.33.36-.68.64-1.04.82-.36.19-.71.28-1.05.28-.41.01-.73-.13-.94-.39z"/></svg>