<svg xmlns="http://www.w3.org/2000/svg" width="19" height="17" viewBox="0 0 19 17"><path fill="#fff" d="M11.44 8.76l-2.96 2.96a.363.363 0 0 1-.52 0 .374.374 0 0 1 0-.52l2.33-2.33H.37a.37.37 0 1 1 0-.74h9.92L7.96 5.8a.374.374 0 0 1 0-.52c.14-.14.38-.14.52 0l2.96 2.96c.15.14.15.38 0 .52zM19 15.15V1.85C19 .83 18.07 0 16.94 0H7.85C6.71 0 5.78.83 5.78 1.84v3.7c0 .21.2.38.42.38s.41-.17.41-.37v-3.7c0-.61.56-1.11 1.24-1.11h9.09c.68 0 1.24.5 1.24 1.11v13.3c0 .61-.56 1.11-1.24 1.11H7.85c-.68 0-1.24-.5-1.24-1.11v-3.7c0-.2-.19-.37-.41-.37s-.41.17-.41.37v3.7c0 1.02.92 1.85 2.06 1.85h9.08c1.14 0 2.07-.83 2.07-1.85z"/></svg>