<svg xmlns="http://www.w3.org/2000/svg" width="17" height="17" viewBox="0 0 17 17"><path fill="#1b3e6a" d="M8.54 11.68c-.87 0-1.64-.32-2.27-.95-.63-.63-.94-1.39-.94-2.28 0-.89.32-1.66.94-2.28.62-.62 1.39-.94 2.27-.94s1.65.32 2.27.94c.63.63.95 1.4.95 2.28 0 .87-.32 1.64-.95 2.27s-1.4.96-2.27.96zm0-5.8c-.71 0-1.31.24-1.81.75s-.75 1.1-.75 1.83c0 .71.24 1.31.75 1.81.51.51 1.11.76 1.81.76s1.3-.25 1.81-.76.76-1.11.76-1.81-.26-1.32-.76-1.83c-.51-.51-1.1-.75-1.81-.75zM9.8.63c.08 0 .14.01.16.02.01.02.02.07.02.16v1.96c0 .27.17.51.42.6.55.19 1.08.51 1.6.93a.63.63 0 0 0 .73.06l1.6-.93s.01 0 .01-.01c.07-.04.11-.06.13-.06.02.02.06.06.1.13v.01l1.34 2.33c.05.08.06.13.06.15a.48.48 0 0 1-.12.1L14.23 7a.63.63 0 0 0-.31.62c.03.23.04.46.06.7v.16c0 .33-.03.64-.08.95-.04.26.08.52.3.65l1.64.96c.01 0 .01.01.02.01.06.03.09.06.11.07 0 .02-.01.04-.02.08 0 .01 0 .02-.01.03 0 .01-.01.02-.02.04v.01l-1.34 2.32c-.05.08-.08.11-.1.12a.41.41 0 0 1-.15-.07l-1.69-.97a.598.598 0 0 0-.31-.08c-.13 0-.27.04-.38.13-.17.13-.34.25-.51.38-.35.21-.7.38-1.03.5-.25.09-.41.33-.41.59v1.97c0 .08-.01.13-.02.16-.02.01-.07.02-.16.02H7.19c-.08 0-.14-.01-.16-.02a.423.423 0 0 1-.02-.16v-1.94c0-.26-.16-.5-.41-.59a4.94 4.94 0 0 1-1.6-.92.623.623 0 0 0-.71-.07l-1.6.91c-.08.05-.13.06-.15.06-.02-.01-.05-.05-.09-.12l-1.32-2.29c-.02-.04-.04-.09-.07-.13-.01-.03-.02-.05-.02-.06.01-.02.05-.05.13-.1L2.79 10a.64.64 0 0 0 .31-.66c-.05-.21-.06-.43-.07-.66v-.17c0-.33.03-.64.08-.95a.633.633 0 0 0-.31-.65l-1.64-.94c-.08-.05-.11-.08-.12-.09 0-.01 0-.01-.01-.02 0-.02.02-.07.06-.15l1.35-2.32s0-.01.01-.01c.04-.07.07-.1.08-.12.02 0 .06.02.14.06l1.7.98c.1.06.21.08.31.08.13 0 .27-.04.38-.13l.01-.01c.17-.12.33-.24.49-.35.34-.21.69-.39 1.04-.52.25-.09.41-.33.41-.59V.81c0-.08.01-.14.02-.16.02-.01.07-.02.16-.02H9.8m0-.63H7.19c-.54 0-.81.27-.81.81v1.97c-.4.15-.79.34-1.17.58-.17.12-.35.26-.53.39l-1.69-.97a.921.921 0 0 0-.47-.15c-.25 0-.46.15-.62.44L.54 5.41c-.13.25-.18.46-.1.65.04.17.18.31.4.45l1.64.94c-.06.35-.09.69-.09 1.06v.18c.02.26.03.51.08.77l-1.63.94c-.43.25-.55.58-.34 1.02.01.01.03.04.04.09l1.34 2.33c.17.29.38.44.63.44.15 0 .31-.05.48-.15l1.6-.91c.55.46 1.15.81 1.79 1.05v1.94c0 .54.27.81.81.81H9.8c.54 0 .81-.27.81-.81v-1.97c.4-.15.79-.34 1.17-.57.18-.13.36-.27.54-.4l1.68.95c.17.1.33.15.48.15.25 0 .45-.14.63-.43l1.34-2.33c.04-.07.08-.13.09-.19.06-.18.07-.34.03-.48-.06-.17-.19-.31-.42-.43l-1.64-.96c.06-.35.09-.69.09-1.06v-.18a9.72 9.72 0 0 0-.06-.76l1.63-.93c.46-.28.55-.64.28-1.1l-1.34-2.33c-.17-.3-.38-.45-.63-.45-.15 0-.3.05-.47.16l-1.6.93a5.93 5.93 0 0 0-1.79-1.05V.81C10.61.27 10.34 0 9.8 0z"/></svg>
