<svg xmlns="http://www.w3.org/2000/svg" viewBox="0 0 514 514"><path fill="#1B3F6A" d="M257.04 410.04a12.24 12.24 0 0 0 12.24-12.24V238.68a12.24 12.24 0 0 0-24.48 0V397.8a12.24 12.24 0 0 0 12.24 12.24zM257.04 171.36a12.24 12.24 0 0 0 12.24-12.24v-30.58a12.24 12.24 0 0 0-24.48 0v30.6a12.24 12.24 0 0 0 12.24 12.22z M257.04 514.08c139.33 0 257-117.71 257-257s-117.71-257-257-257S.04 117.71.04 257.04s117.67 257.04 257 257.04zm0-489.6c126.06 0 232.56 106.5 232.56 232.56S383.1 489.6 257.04 489.6 24.48 383.1 24.48 257.04 130.98 24.48 257.04 24.48z" /></svg>
