<?xml version="1.0" encoding="UTF-8" standalone="no"?>
<svg width="17px" height="17px" viewBox="0 0 17 17" version="1.1" xmlns="http://www.w3.org/2000/svg" xmlns:xlink="http://www.w3.org/1999/xlink">
    <!-- Generator: Sketch 3.8.3 (29802) - http://www.bohemiancoding.com/sketch -->
    <title>Slice 1</title>
    <desc>Created with Sketch.</desc>
    <defs></defs>
    <g id="Page-1" stroke="none" stroke-width="1" fill="none" fill-rule="evenodd">
        <g id="icon-instagram--blue" transform="translate(-1.000000, 0.000000)" fill="#1A3F6A">
            <path d="M14.73,0 L4.28,0 C2.46298317,-2.84217094e-14 0.99,1.47298317 0.99,3.29 L0.99,13.72 C0.99,15.5370168 2.46298317,17.01 4.28,17.01 L14.73,17.01 C16.5470168,17.01 18.02,15.5370168 18.02,13.72 L18.02,3.28 C18.014489,1.46688964 16.5431187,-8.37539801e-06 14.73,0 L14.73,0 Z M15.67,2 L16.05,2 L16.05,4.88 L13.18,4.88 L13.18,2 L15.69,2 L15.67,2 Z M7.08,6.8 C7.9461859,5.60361066 9.55432718,5.21570983 10.8706905,5.88564503 C12.1870538,6.55558023 12.8199257,8.08399724 12.3624882,9.48841046 C11.9050508,10.8928237 10.4934247,11.7553185 9.03502098,11.5214724 C7.57661723,11.2876264 6.50541648,10.0270256 6.51,8.55 C6.5005625,7.90881764 6.69682392,7.28148202 7.07,6.76 L7.08,6.8 Z M16.35,13.8 C16.35,14.7002241 15.6202241,15.43 14.72,15.43 L4.28,15.43 C3.37977586,15.43 2.65,14.7002241 2.65,13.8 L2.65,6.8 L5.19,6.8 C4.40344952,8.7422736 5.01318132,10.970687 6.67900954,12.2419481 C8.34483775,13.5132092 10.6551622,13.5132092 12.3209905,12.2419481 C13.9868187,10.970687 14.5965505,8.7422736 13.81,6.8 L16.35,6.8 L16.35,13.8 L16.35,13.8 Z" id="Shape"></path>
        </g>
    </g>
</svg>