<svg xmlns="http://www.w3.org/2000/svg" width="19" height="17" viewBox="0 0 19 17"><path fill="#FFFFFF" d="M0 15.15V1.85C0 .83.93 0 2.06 0h9.09c1.14 0 2.07.83 2.07 1.84v3.7c0 .21-.2.38-.42.38s-.41-.17-.41-.37v-3.7c0-.61-.56-1.11-1.24-1.11H2.06c-.68 0-1.24.5-1.24 1.11v13.3c0 .61.56 1.11 1.24 1.11h9.09c.68 0 1.24-.5 1.24-1.11v-3.7c0-.2.19-.37.41-.37s.41.17.41.37v3.7c0 1.02-.92 1.85-2.06 1.85H2.07C.93 17 0 16.17 0 15.15zm18.89-6.91l-2.96-2.96a.374.374 0 0 0-.52 0c-.14.14-.14.38 0 .52l2.33 2.33H7.82c-.2 0-.37.17-.37.37s.17.37.37.37h9.92l-2.33 2.33c-.14.14-.14.38 0 .52.07.07.17.11.26.11s.19-.04.26-.11l2.96-2.96c.15-.14.15-.38 0-.52z"/></svg>
