<?xml version="1.0" encoding="UTF-8" standalone="no"?>
<svg width="19px" height="16px" viewBox="0 0 19 16" version="1.1" xmlns="http://www.w3.org/2000/svg" xmlns:xlink="http://www.w3.org/1999/xlink">
    <!-- Generator: Sketch 39.1 (31720) - http://www.bohemiancoding.com/sketch -->
    <title>fa-bars</title>
    <desc>Created with Sketch.</desc>
    <defs></defs>
    <g id="Symbols" stroke="none" stroke-width="1" fill="none" fill-rule="evenodd">
        <g id="fa-bars" fill="#FFFFFF">
            <path d="M0.115,15.973 C0.272,16.13 0.452,16.22 0.676,16.22 L18.296,16.22 C18.521,16.22 18.7,16.13 18.88,15.973 C19.037,15.816 19.104,15.636 19.104,15.412 L19.104,13.818 C19.104,13.594 19.037,13.414 18.88,13.257 C18.7,13.1 18.521,13.01 18.296,13.01 L0.676,13.01 C0.452,13.01 0.272,13.1 0.115,13.257 C-0.042,13.414 -0.132,13.594 -0.132,13.818 L-0.132,15.412 C-0.132,15.636 -0.042,15.816 0.115,15.973 L0.115,15.973 Z M0.115,9.554 C0.272,9.711 0.452,9.8 0.676,9.8 L18.296,9.8 C18.521,9.8 18.7,9.711 18.88,9.554 C19.037,9.396 19.104,9.217 19.104,8.992 L19.104,7.399 C19.104,7.174 19.037,6.995 18.88,6.838 C18.7,6.681 18.521,6.591 18.296,6.591 L0.676,6.591 C0.452,6.591 0.272,6.681 0.115,6.838 C-0.042,6.995 -0.132,7.174 -0.132,7.399 L-0.132,8.992 C-0.132,9.217 -0.042,9.396 0.115,9.554 L0.115,9.554 Z M0.115,3.157 C0.272,3.314 0.452,3.404 0.676,3.404 L18.296,3.404 C18.521,3.404 18.7,3.314 18.88,3.157 C19.037,2.999 19.104,2.82 19.104,2.595 L19.104,1.002 C19.104,0.777 19.037,0.598 18.88,0.441 C18.7,0.284 18.521,0.194 18.296,0.194 L0.676,0.194 C0.452,0.194 0.272,0.284 0.115,0.441 C-0.042,0.598 -0.132,0.777 -0.132,1.002 L-0.132,2.595 C-0.132,2.82 -0.042,2.999 0.115,3.157 L0.115,3.157 Z" id="Fill-132"></path>
        </g>
    </g>
</svg>