<svg xmlns="http://www.w3.org/2000/svg" width="200" height="60" viewBox="0 0 200 60"><circle fill="#fff" cx="100" cy="30" r="30"/><path fill="#c40000" d="M100 21.681a.896.896 0 0 0-.895.895v11.179a.895.895 0 1 0 1.79 0V22.576a.896.896 0 0 0-.895-.895zm0 15.745a.895.895 0 0 0-.895.893v1.789a.895.895 0 1 0 1.79 0v-1.789a.895.895 0 0 0-.895-.893zm2.422-24.468a2.797 2.797 0 0 0-4.843 0l-17.28 29.929a2.689 2.689 0 0 0 0 2.752c.505.875 1.411 1.355 2.421 1.355h34.559c1.011 0 1.916-.479 2.422-1.355a2.727 2.727 0 0 0 0-2.773l-17.279-29.908zm15.73 31.786c-.088.151-.348.46-.873.46H82.72c-.525 0-.785-.309-.873-.46a.946.946 0 0 1 0-.984l17.28-29.918a.984.984 0 0 1 .872-.499.998.998 0 0 1 .873.506l17.279 29.909a.947.947 0 0 1 .001.986z"/></svg>