<svg xmlns="http://www.w3.org/2000/svg" width="21" height="21" viewBox="0 0 21 21"><path fill="none" stroke="#1b3e6a" stroke-linecap="round" stroke-linejoin="round" stroke-miterlimit="10" d="M6.86 15.58h2.22M10.5 6.9v12.72m7.27-14.15L12.9 3.66l2.21-.94S14.2.5 10.5.5 5.89 2.72 5.89 2.72l2.31.94-4.97 1.81L.5 17.91l.46 1.8 2.01.16.78-1.75 1.75-7.2v9.58h10v-9.58l1.75 7.2.78 1.75 2.01-.16.46-1.8-2.73-12.44zm-3.63 10.11h-2.22M10.5 2.75C8.56 2.75 8.4 4 8.4 4c1.28.73 2.1 2.56 2.1 2.56s.82-1.83 2.1-2.56c0 0-.16-1.25-2.1-1.25z"/></svg>
