<svg xmlns="http://www.w3.org/2000/svg" width="14" height="19" viewBox="0 0 14 19"><path fill="#666666" d="M12.9 10.77L7 18.85l-5.9-8.08A6.89 6.89 0 0 1 0 7c0-3.88 3.12-7 7-7s7 3.12 7 7c0 1.4-.4 2.69-1.1 3.77zM7 .81C3.58.81.81 3.64.81 7.11c0 1.24.35 2.42.97 3.39L7 17.77l5.22-7.27c.62-.97.97-2.15.97-3.39 0-3.48-2.77-6.3-6.19-6.3zm0 8.88C5.52 9.69 4.31 8.48 4.31 7S5.52 4.31 7 4.31 9.69 5.52 9.69 7 8.48 9.69 7 9.69zm0-4.57c-1.05 0-1.88.83-1.88 1.88S5.95 8.88 7 8.88 8.88 8.05 8.88 7 8.05 5.12 7 5.12z"/></svg>
