<svg xmlns="http://www.w3.org/2000/svg" width="60" height="60" viewBox="0 0 60 60"><circle fill="#FFF" cx="30" cy="30" r="30"/><path fill="#cf0000" d="M30 21.1c-.5 0-.9.4-.9.9v11.2c0 .5.4.9.9.9s.9-.4.9-.9V22c0-.5-.4-.9-.9-.9zm0 15.7c-.5 0-.9.4-.9.9v1.8c0 .5.4.9.9.9s.9-.4.9-.9v-1.8c0-.5-.4-.9-.9-.9zm2.4-24.4c-.6-1-1.3-1.4-2.4-1.4-1.1 0-1.9.5-2.4 1.4L10.3 42.3c-.5.9-.5 1.9 0 2.8s1.4 1.4 2.4 1.4h34.6c1 0 1.9-.5 2.4-1.4.5-.9.5-1.9 0-2.8L32.4 12.4zm15.8 31.8c-.1.2-.3.5-.9.5H12.7c-.5 0-.8-.3-.9-.5-.2-.3-.2-.7 0-1l17.3-29.9c.2-.3.5-.5.9-.5s.7.2.9.5l17.3 29.9c.1.3.1.7 0 1z"/></svg>
